<svg viewBox="0 0 16 14" xmlns="http://www.w3.org/2000/svg"><path d="M1.66311 6.39374C1.3482 6.39453 1.03997 6.47534 0.774083 6.62681C0.508199 6.77828 0.295525 6.99422 0.160666 7.24966C0.0258074 7.50509 -0.025725 7.78958 0.0120309 8.07021C0.0497867 8.35083 0.175288 8.61613 0.374015 8.83541L4.61041 13.4935C4.76145 13.6619 4.95507 13.7955 5.17518 13.8832C5.39529 13.9709 5.63553 14.0101 5.87595 13.9978C6.39016 13.973 6.8544 13.7261 7.15038 13.3201L15.9504 0.598961C15.9519 0.596851 15.9534 0.594741 15.9549 0.592662C16.0375 0.478865 16.0107 0.253351 15.8403 0.11168C15.7935 0.072775 15.7383 0.0428855 15.6781 0.0238517C15.6179 0.00481798 15.5541 -0.00295704 15.4904 0.0010057C15.4268 0.00496843 15.3647 0.020585 15.308 0.0468935C15.2513 0.073202 15.2013 0.109645 15.1609 0.153979C15.1577 0.157465 15.1545 0.160898 15.1511 0.164279L6.27615 9.16483C6.24238 9.19908 6.20137 9.22697 6.15549 9.24687C6.10961 9.26677 6.05978 9.27829 6.0089 9.28076C5.95802 9.28323 5.9071 9.2766 5.8591 9.26126C5.8111 9.24591 5.76697 9.22216 5.72928 9.19138L2.78384 6.78549C2.47793 6.53379 2.0781 6.39402 1.66311 6.39374Z"/></svg>